<svg width="159" height="48" viewBox="0 0 159 48" fill="none" xmlns="http://www.w3.org/2000/svg">
<circle r="11.8154" transform="matrix(0 -1 0.866025 -0.5 26.9707 28.3077)" fill="url(#paint0_linear_1434_24327)"/>
<circle r="11.8154" transform="matrix(0 -1 0.866025 -0.5 26.9707 28.3077)" stroke="#2F2F2F"/>
<circle r="16" transform="matrix(0 -1 0.866025 -0.5 18.288 24)" fill="url(#paint1_linear_1434_24327)"/>
<circle r="16" transform="matrix(0 -1 0.866025 -0.5 18.288 24)" stroke="#2F2F2F"/>
<circle r="11.8154" transform="matrix(0 -1 0.866025 -0.5 10.2324 20.4307)" fill="url(#paint2_linear_1434_24327)"/>
<circle r="11.8154" transform="matrix(0 -1 0.866025 -0.5 10.2324 20.4307)" stroke="url(#paint3_linear_1434_24327)"/>
<path d="M57.2246 15.4296C57.8587 15.4296 58.4551 15.5579 59.0137 15.8146C59.5723 16.0561 60.0554 16.3958 60.463 16.8336C60.8858 17.2564 61.2179 17.7621 61.4595 18.3509C61.701 18.9246 61.8218 19.5436 61.8218 20.2079C61.8218 20.8722 61.701 21.4988 61.4595 22.0876C61.2179 22.6613 60.8858 23.167 60.463 23.6048C60.0554 24.0427 59.5723 24.3899 59.0137 24.6466C58.4551 24.8881 57.8587 25.0089 57.2246 25.0089H53.7145V31.4857H50.2949V15.4296H57.2246ZM56.7717 21.8837C57.2095 21.8837 57.587 21.7252 57.904 21.4082C58.2362 21.076 58.4022 20.6759 58.4022 20.2079C58.4022 19.755 58.2362 19.37 57.904 19.053C57.587 18.7208 57.2095 18.5548 56.7717 18.5548H53.7145V21.8837H56.7717Z" fill="#2F2F2F"/>
<path d="M73.7524 20.2532V31.4857H71.0576L70.7405 30.2855C70.3027 30.8743 69.7743 31.2668 69.1553 31.4631C68.5514 31.6593 67.9173 31.7575 67.253 31.7575C66.4528 31.7575 65.7131 31.6065 65.0337 31.3045C64.3694 30.9875 63.7881 30.5648 63.2899 30.0364C62.7917 29.4928 62.3992 28.8663 62.1123 28.1567C61.8406 27.432 61.7047 26.6621 61.7047 25.8468C61.7047 25.0316 61.8406 24.2691 62.1123 23.5596C62.3992 22.8349 62.7917 22.2083 63.2899 21.6799C63.7881 21.1364 64.3694 20.7137 65.0337 20.4117C65.7131 20.0947 66.4528 19.9362 67.253 19.9362C67.9777 19.9362 68.642 20.0494 69.2459 20.2759C69.8498 20.5023 70.348 20.8647 70.7405 21.3629L71.0576 20.2532H73.7524ZM70.6273 25.8921C70.6273 25.3033 70.5442 24.8126 70.3782 24.4201C70.2272 24.0125 70.0158 23.6879 69.7441 23.4463C69.4874 23.1897 69.1779 23.0085 68.8156 22.9028C68.4683 22.782 68.0909 22.7216 67.6833 22.7216C67.2756 22.7216 66.8907 22.8047 66.5283 22.9708C66.1811 23.1368 65.8716 23.3633 65.5998 23.6501C65.3281 23.9219 65.1167 24.254 64.9657 24.6466C64.8148 25.024 64.7393 25.4241 64.7393 25.8468C64.7393 26.2846 64.8148 26.6923 64.9657 27.0697C65.1167 27.4471 65.3281 27.7793 65.5998 28.0661C65.8716 28.3379 66.1811 28.5568 66.5283 28.7229C66.8907 28.889 67.2756 28.972 67.6833 28.972C68.4985 28.972 69.1855 28.7229 69.7441 28.2247C70.3178 27.7114 70.6122 26.9338 70.6273 25.8921Z" fill="#2F2F2F"/>
<path d="M78.1775 21.8158C78.3284 21.5742 78.5021 21.3478 78.6983 21.1364C78.8946 20.91 79.1286 20.7137 79.4004 20.5476C79.6721 20.3664 79.9816 20.223 80.3289 20.1173C80.6761 20.0117 81.0686 19.9588 81.5065 19.9588C82.0198 19.9588 82.6161 20.0494 83.2955 20.2306L83.0011 23.016C82.835 22.9859 82.669 22.9481 82.5029 22.9028C82.367 22.8726 82.216 22.85 82.05 22.8349C81.8839 22.8047 81.7329 22.7896 81.597 22.7896C81.1139 22.7896 80.661 22.8575 80.2383 22.9934C79.8306 23.1293 79.4758 23.318 79.1739 23.5596C78.872 23.8011 78.6304 24.0955 78.4492 24.4428C78.2681 24.7749 78.1775 25.1372 78.1775 25.5298V31.4857H75.0523V20.2532H77.8831L78.1775 21.8158Z" fill="#2F2F2F"/>
<path d="M95.5043 20.2532V31.4857H92.8094L92.4923 30.2855C92.0545 30.8743 91.5261 31.2668 90.9071 31.4631C90.3032 31.6593 89.6691 31.7575 89.0048 31.7575C88.2046 31.7575 87.4649 31.6065 86.7855 31.3045C86.1212 30.9875 85.5399 30.5648 85.0417 30.0364C84.5435 29.4928 84.151 28.8663 83.8641 28.1567C83.5924 27.432 83.4565 26.6621 83.4565 25.8468C83.4565 25.0316 83.5924 24.2691 83.8641 23.5596C84.151 22.8349 84.5435 22.2083 85.0417 21.6799C85.5399 21.1364 86.1212 20.7137 86.7855 20.4117C87.4649 20.0947 88.2046 19.9362 89.0048 19.9362C89.7295 19.9362 90.3938 20.0494 90.9977 20.2759C91.6016 20.5023 92.0998 20.8647 92.4923 21.3629L92.8094 20.2532H95.5043ZM92.3791 25.8921C92.3791 25.3033 92.2961 24.8126 92.13 24.4201C91.979 24.0125 91.7676 23.6879 91.4959 23.4463C91.2392 23.1897 90.9297 23.0085 90.5674 22.9028C90.2202 22.782 89.8427 22.7216 89.4351 22.7216C89.0275 22.7216 88.6425 22.8047 88.2801 22.9708C87.9329 23.1368 87.6234 23.3633 87.3516 23.6501C87.0799 23.9219 86.8685 24.254 86.7175 24.6466C86.5666 25.024 86.4911 25.4241 86.4911 25.8468C86.4911 26.2846 86.5666 26.6923 86.7175 27.0697C86.8685 27.4471 87.0799 27.7793 87.3516 28.0661C87.6234 28.3379 87.9329 28.5568 88.2801 28.7229C88.6425 28.889 89.0275 28.972 89.4351 28.972C90.2504 28.972 90.9373 28.7229 91.4959 28.2247C92.0696 27.7114 92.364 26.9338 92.3791 25.8921Z" fill="#2F2F2F"/>
<path d="M107.108 23.2199C107.742 23.5973 108.225 24.0804 108.557 24.6692C108.89 25.258 109.056 25.9374 109.056 26.7074C109.056 27.432 108.882 28.1114 108.535 28.7455C108.188 29.3645 107.697 29.9156 107.063 30.3987C106.489 30.8365 105.832 31.1762 105.093 31.4178C104.368 31.6442 103.598 31.765 102.783 31.7801C101.967 31.7801 101.19 31.6669 100.45 31.4404C99.7104 31.214 99.0536 30.8743 98.4799 30.4213C97.6194 29.7722 97.0306 28.9871 96.7135 28.0661L99.884 26.5941C99.884 26.7451 99.9368 26.9338 100.043 27.1603C100.148 27.3868 100.314 27.6057 100.541 27.817C100.767 28.0284 101.062 28.2096 101.424 28.3605C101.786 28.5115 102.232 28.587 102.76 28.587C103.183 28.587 103.553 28.5342 103.87 28.4285C104.202 28.3228 104.474 28.1945 104.685 28.0435C104.911 27.8774 105.078 27.6963 105.183 27.5C105.304 27.2886 105.364 27.0773 105.364 26.8659C105.364 26.6243 105.281 26.3979 105.115 26.1865C104.964 25.9751 104.723 25.8091 104.391 25.6883C103.787 25.4769 103.145 25.3033 102.466 25.1674C101.801 25.0165 101.152 24.8353 100.518 24.6239C99.884 24.3975 99.2952 24.1031 98.7517 23.7407C98.2082 23.3784 97.7779 22.8726 97.4608 22.2234C97.174 21.6497 97.0306 21.0383 97.0306 20.3891C97.0306 19.6644 97.1966 18.9624 97.5288 18.283C97.876 17.6036 98.3441 17.0299 98.9328 16.5619C99.4915 16.1241 100.118 15.7919 100.812 15.5655C101.507 15.3239 102.239 15.2031 103.009 15.2031C103.779 15.2031 104.511 15.3164 105.206 15.5428C105.915 15.7693 106.55 16.1014 107.108 16.5392C107.652 16.9469 108.082 17.4224 108.399 17.966L105.817 19.7324C105.5 19.2945 105.1 18.9473 104.617 18.6906C104.149 18.4189 103.621 18.283 103.032 18.283C102.217 18.283 101.582 18.4642 101.13 18.8265C100.692 19.1888 100.473 19.6644 100.473 20.2532C100.473 20.525 100.594 20.7665 100.835 20.9779C101.092 21.1893 101.416 21.378 101.809 21.544C102.217 21.7101 102.669 21.8611 103.168 21.997C103.666 22.1178 104.157 22.2461 104.64 22.382C105.138 22.5027 105.606 22.6311 106.044 22.7669C106.482 22.9028 106.836 23.0538 107.108 23.2199Z" fill="#2F2F2F"/>
<path d="M116.624 19.9362C117.424 19.9362 118.164 20.0947 118.844 20.4117C119.523 20.7137 120.104 21.1364 120.587 21.6799C121.086 22.2083 121.471 22.8349 121.742 23.5596C122.029 24.2691 122.173 25.0316 122.173 25.8468C122.173 26.6621 122.029 27.432 121.742 28.1567C121.471 28.8663 121.086 29.4928 120.587 30.0364C120.104 30.5648 119.523 30.9875 118.844 31.3045C118.164 31.6065 117.424 31.7575 116.624 31.7575C115.975 31.7575 115.341 31.6442 114.722 31.4178C114.103 31.1762 113.62 30.8743 113.273 30.5119V35.9697H110.147V20.2532H112.82L113.273 21.0232C113.71 20.6307 114.201 20.3514 114.745 20.1853C115.288 20.0192 115.915 19.9362 116.624 19.9362ZM116.217 28.972C116.624 28.972 117.002 28.889 117.349 28.7229C117.711 28.5568 118.021 28.3379 118.277 28.0661C118.549 27.7793 118.761 27.4471 118.912 27.0697C119.078 26.6923 119.161 26.2846 119.161 25.8468C119.161 25.4241 119.078 25.024 118.912 24.6466C118.761 24.254 118.549 23.9219 118.277 23.6501C118.021 23.3633 117.711 23.1368 117.349 22.9708C117.002 22.8047 116.624 22.7216 116.217 22.7216C115.809 22.7216 115.424 22.782 115.062 22.9028C114.714 23.0085 114.405 23.1897 114.133 23.4463C113.877 23.6879 113.673 24.0125 113.522 24.4201C113.371 24.8126 113.295 25.2882 113.295 25.8468C113.295 26.3752 113.371 26.8357 113.522 27.2282C113.673 27.6057 113.877 27.9303 114.133 28.202C114.405 28.4587 114.714 28.6549 115.062 28.7908C115.424 28.9116 115.809 28.972 116.217 28.972Z" fill="#2F2F2F"/>
<path d="M134.579 20.2532V31.4857H131.884L131.567 30.2855C131.129 30.8743 130.6 31.2668 129.981 31.4631C129.378 31.6593 128.743 31.7575 128.079 31.7575C127.279 31.7575 126.539 31.6065 125.86 31.3045C125.196 30.9875 124.614 30.5648 124.116 30.0364C123.618 29.4928 123.225 28.8663 122.938 28.1567C122.667 27.432 122.531 26.6621 122.531 25.8468C122.531 25.0316 122.667 24.2691 122.938 23.5596C123.225 22.8349 123.618 22.2083 124.116 21.6799C124.614 21.1364 125.196 20.7137 125.86 20.4117C126.539 20.0947 127.279 19.9362 128.079 19.9362C128.804 19.9362 129.468 20.0494 130.072 20.2759C130.676 20.5023 131.174 20.8647 131.567 21.3629L131.884 20.2532H134.579ZM131.453 25.8921C131.453 25.3033 131.37 24.8126 131.204 24.4201C131.053 24.0125 130.842 23.6879 130.57 23.4463C130.314 23.1897 130.004 23.0085 129.642 22.9028C129.294 22.782 128.917 22.7216 128.509 22.7216C128.102 22.7216 127.717 22.8047 127.354 22.9708C127.007 23.1368 126.698 23.3633 126.426 23.6501C126.154 23.9219 125.943 24.254 125.792 24.6466C125.641 25.024 125.565 25.4241 125.565 25.8468C125.565 26.2846 125.641 26.6923 125.792 27.0697C125.943 27.4471 126.154 27.7793 126.426 28.0661C126.698 28.3379 127.007 28.5568 127.354 28.7229C127.717 28.889 128.102 28.972 128.509 28.972C129.325 28.972 130.012 28.7229 130.57 28.2247C131.144 27.7114 131.438 26.9338 131.453 25.8921Z" fill="#2F2F2F"/>
<path d="M141.449 22.7216C141.072 22.7216 140.717 22.8122 140.385 22.9934C140.053 23.1595 139.758 23.3935 139.502 23.6954C139.26 23.9823 139.064 24.322 138.913 24.7145C138.777 25.107 138.709 25.5298 138.709 25.9827C138.709 26.4356 138.777 26.8508 138.913 27.2282C139.064 27.5906 139.26 27.9076 139.502 28.1794C139.758 28.436 140.053 28.6398 140.385 28.7908C140.717 28.9418 141.072 29.0173 141.449 29.0173C141.917 29.0173 142.37 28.9116 142.808 28.7002C143.261 28.4738 143.646 28.1643 143.963 27.7717L145.888 29.674C145.36 30.3081 144.71 30.8139 143.94 31.1913C143.171 31.5687 142.34 31.7575 141.449 31.7575C140.634 31.7575 139.872 31.6065 139.162 31.3045C138.453 30.9875 137.834 30.5648 137.305 30.0364C136.777 29.4928 136.354 28.8663 136.037 28.1567C135.735 27.432 135.584 26.6621 135.584 25.8468C135.584 25.0316 135.735 24.2691 136.037 23.5596C136.354 22.8349 136.777 22.2083 137.305 21.6799C137.834 21.1364 138.453 20.7137 139.162 20.4117C139.872 20.0947 140.634 19.9362 141.449 19.9362C142.37 19.9362 143.223 20.1324 144.008 20.525C144.793 20.9175 145.458 21.4535 146.001 22.1328L143.827 23.8087C143.389 23.401 142.989 23.1217 142.627 22.9708C142.28 22.8047 141.887 22.7216 141.449 22.7216Z" fill="#2F2F2F"/>
<path d="M152.447 19.9362C153.293 19.9362 154.063 20.1098 154.757 20.457C155.452 20.7892 156.048 21.2346 156.546 21.7932C157.045 22.3367 157.43 22.9708 157.701 23.6954C157.973 24.405 158.109 25.1372 158.109 25.8921C158.109 26.345 158.049 26.8282 157.928 27.3415H149.911C150.213 27.8548 150.643 28.2926 151.202 28.6549C151.761 29.0022 152.364 29.1758 153.014 29.1758C153.663 29.1758 154.229 29.123 154.712 29.0173C155.21 28.9116 155.678 28.7757 156.116 28.6096L157.158 30.5346C156.599 30.9271 155.958 31.2291 155.233 31.4404C154.523 31.6518 153.761 31.7575 152.946 31.7575C152.055 31.7575 151.225 31.6065 150.455 31.3045C149.685 30.9875 149.013 30.5648 148.439 30.0364C147.865 29.5079 147.412 28.8814 147.08 28.1567C146.748 27.432 146.582 26.6621 146.582 25.8468C146.582 25.0467 146.733 24.2918 147.035 23.5822C147.337 22.8575 147.752 22.231 148.281 21.7026C148.824 21.1591 149.451 20.7288 150.16 20.4117C150.87 20.0947 151.632 19.9362 152.447 19.9362ZM155.007 24.9183C154.825 24.2691 154.501 23.7407 154.033 23.3331C153.565 22.9255 153.036 22.7216 152.447 22.7216C151.844 22.7216 151.293 22.9255 150.794 23.3331C150.311 23.7407 149.979 24.2691 149.798 24.9183H155.007Z" fill="#2F2F2F"/>
<defs>
<linearGradient id="paint0_linear_1434_24327" x1="19.3388" y1="24.268" x2="1.27426" y2="5.01219" gradientUnits="userSpaceOnUse">
<stop offset="0.234375" stop-color="#6D85FF"/>
<stop offset="0.630208" stop-color="#2BD9FF" stop-opacity="0.7"/>
<stop offset="1" stop-color="#2BD9FF" stop-opacity="0"/>
</linearGradient>
<linearGradient id="paint1_linear_1434_24327" x1="4.77702" y1="7.63067" x2="27.6731" y2="28.7944" gradientUnits="userSpaceOnUse">
<stop stop-color="#FD44D0"/>
<stop offset="0.411458" stop-color="#9E81FF"/>
<stop offset="1" stop-color="#9E81FF" stop-opacity="0"/>
</linearGradient>
<linearGradient id="paint2_linear_1434_24327" x1="23.5389" y1="17.9067" x2="4.51516" y2="2.27664" gradientUnits="userSpaceOnUse">
<stop stop-color="#FD63BB"/>
<stop offset="0.630208" stop-color="#FFC677"/>
<stop offset="1" stop-color="#FFC677" stop-opacity="0"/>
</linearGradient>
<linearGradient id="paint3_linear_1434_24327" x1="21.7016" y1="19.6121" x2="10.4084" y2="-0.277239" gradientUnits="userSpaceOnUse">
<stop stop-color="white"/>
<stop offset="1" stop-color="white" stop-opacity="0"/>
</linearGradient>
</defs>
</svg>
